<svg width="18" height="17" viewBox="0 0 18 17" fill="none" xmlns="http://www.w3.org/2000/svg">
<path fill-rule="evenodd" clip-rule="evenodd" d="M9.17818 1.52199L9.00045 1.69908L8.82285 1.52199C7.84649 0.547419 6.5233 0.000168521 5.14353 0.000168521C3.76403 0.000168521 2.44087 0.547453 1.46422 1.52199C0.457511 2.52834 -0.0348828 3.68229 0.00192023 4.95231C0.100862 8.3995 4.03471 11.9049 6.90621 14.4642C7.60577 15.0885 8.21144 15.6275 8.66918 16.0852H8.66931C8.75702 16.1731 8.87598 16.2224 9.00011 16.2224C9.12424 16.2224 9.2432 16.1731 9.33091 16.0852C9.78895 15.6275 10.3932 15.0884 11.0935 14.4646C13.9658 11.9044 17.8989 8.3992 17.9981 4.95201C18.0343 3.68193 17.5426 2.52834 16.5361 1.52169V1.52182C15.5597 0.547251 14.2366 0 12.8568 0C11.4773 0 10.1541 0.547284 9.17748 1.52182L9.17818 1.52199Z" fill="white"/>
</svg>
