<svg width="24" height="24" viewBox="0 0 24 24" fill="none" xmlns="http://www.w3.org/2000/svg">
<path d="M8.30653 17.9345C8.40121 18.2502 8.43269 18.5658 8.43269 18.913C8.43269 20.9964 6.72824 22.7009 4.64482 22.7009C4.04501 22.7009 3.44525 22.543 2.94036 22.2904L4.8659 20.3649L3.19289 18.6919L1.26736 20.6174C1.0148 20.1123 0.856934 19.5125 0.856934 18.913C0.856934 16.8295 2.56139 15.1251 4.64481 15.1251C4.99205 15.1251 5.30781 15.1883 5.6233 15.2513L9.00099 11.8736L11.6842 14.5568L8.30653 17.9345ZM12.5993 14.5568L12.0312 16.009L19.1652 23.1429L20.6173 22.5748L22.6375 20.5546L23.2056 19.1024L16.0401 12.0001L14.588 12.5684L7.54872 5.52912L7.29616 3.25636L3.00317 0.952096L0.982939 2.9721L3.28721 7.26509L5.55997 7.51765L12.5993 14.5568ZM11.9051 9.00122L14.5883 11.6845L17.966 8.30677C18.2817 8.40145 18.5972 8.43294 18.9445 8.43294C21.0279 8.43294 22.7323 6.72848 22.7323 4.64506C22.7323 4.04525 22.5745 3.4455 22.3219 2.94061L20.3964 4.86614L18.7234 3.19314L20.6489 1.2676C20.1438 1.01505 19.544 0.857178 18.9445 0.857178C16.861 0.857178 15.1566 2.56163 15.1566 4.64505C15.1566 4.99229 15.2198 5.30805 15.2828 5.62355L11.9051 9.00122Z" fill="#F9FAFB"/>
</svg>
