<svg width="292" height="270" viewBox="0 0 292 270" fill="none" xmlns="http://www.w3.org/2000/svg">
<path fill-rule="evenodd" clip-rule="evenodd" d="M258.706 184.859C258.278 185.124 257.845 185.382 257.407 185.635C256.949 185.899 256.489 186.155 256.026 186.404C255.599 186.669 255.167 186.928 254.729 187.181C254.271 187.445 253.81 187.701 253.346 187.948C252.92 188.215 252.489 188.474 252.052 188.727C251.593 188.991 251.131 189.247 250.666 189.493C250.241 189.76 249.811 190.02 249.374 190.273C248.915 190.538 248.452 190.792 247.985 191.037C247.562 191.306 247.133 191.567 246.697 191.818C246.237 192.084 245.773 192.338 245.304 192.581C244.883 192.851 244.455 193.113 244.019 193.364C243.559 193.63 243.093 193.883 242.622 194.124C242.204 194.397 241.777 194.659 241.342 194.91C240.881 195.176 240.413 195.429 239.94 195.667C239.524 195.942 239.099 196.205 238.665 196.456C215.005 210.116 173.045 181.733 144.945 133.062C116.845 84.3914 113.245 33.8622 136.905 20.2024C137.339 19.9516 137.779 19.7151 138.226 19.4926C138.669 19.2017 139.121 18.9229 139.582 18.6565C140.017 18.4054 140.457 18.1669 140.903 17.941C141.347 17.6534 141.799 17.3766 142.259 17.1107C142.695 16.8592 143.135 16.6191 143.58 16.3902C144.025 16.1055 144.477 15.8303 144.937 15.5649C145.373 15.3131 145.813 15.0715 146.258 14.8402C146.703 14.5578 147.155 14.2841 147.614 14.019C148.051 13.767 148.491 13.5242 148.935 13.2907C149.381 13.0104 149.833 12.7379 150.292 12.4732C150.729 12.2209 151.169 11.977 151.613 11.7416C152.059 11.4632 152.511 11.1917 152.969 10.9274C153.407 10.6748 153.847 10.43 154.291 10.193C154.737 9.91609 155.189 9.64558 155.647 9.38154C156.085 9.12875 156.525 8.88312 156.968 8.64461C157.415 8.36914 157.867 8.09947 158.324 7.8357C193.814 -12.6541 245.363 10.1914 273.463 58.8624C301.564 107.533 295.574 163.599 260.084 184.089C259.627 184.353 259.168 184.61 258.706 184.859ZM253.208 153.215C251.764 132.945 243.89 108.269 229.89 84.0198C215.889 59.7707 198.456 40.6129 181.624 29.2274C169.046 20.7197 156.949 16.6374 146.888 17.8263C136.603 28.4252 130.424 43.1923 128.632 59.9712C126.232 82.4359 131.71 108.442 145.68 132.638C159.65 156.835 179.432 174.582 200.087 183.736C215.515 190.573 231.393 192.605 245.714 188.998C251.774 180.879 254.287 168.362 253.208 153.215ZM247.896 188.401C247.6 188.489 247.304 188.574 247.007 188.656C260.836 168.683 254.79 125.452 230.624 83.5958C206.458 41.7394 172.042 14.8882 147.831 16.8775C148.051 16.6615 148.272 16.4473 148.496 16.235C159.419 14.0897 172.617 17.8773 186.212 26.5998C203.521 37.705 221.248 56.6852 235.244 80.9281C249.241 105.171 256.815 130.013 257.778 150.556C258.534 166.691 255.216 180.014 247.896 188.401ZM249.928 187.757C249.75 187.818 249.571 187.877 249.392 187.936C265.497 167.796 260.612 123.17 235.979 80.5041C211.346 37.8379 175.14 11.2949 149.647 15.172C149.787 15.0464 149.928 14.9214 150.069 14.7972C161.871 11.6375 176.19 15.0797 190.8 23.9716C208.585 34.7968 226.606 53.5999 240.599 77.8364C254.592 102.073 261.866 127.081 262.348 147.897C262.744 164.995 258.565 179.116 249.928 187.757ZM251.824 187.077C251.783 187.092 251.742 187.108 251.701 187.123C270.059 166.771 266.386 120.803 241.334 77.4124C216.282 34.0215 178.309 7.85626 151.505 13.5787C151.539 13.5509 151.573 13.5232 151.607 13.4956C164.306 9.27172 179.767 12.3228 195.387 21.3426C213.65 31.8884 231.965 50.5146 245.954 74.7448C259.944 98.9749 266.917 124.149 266.918 145.238C266.92 163.276 261.832 178.191 251.824 187.077ZM207.005 187.365C217.674 191.029 228.435 192.391 238.637 191.166C228.561 192.587 217.781 191.218 207.005 187.365ZM168.582 4.13317C183.938 -1.02881 201.401 0.690374 218.321 8.18904C238.976 17.3428 258.759 35.0897 272.729 59.2864C286.699 83.4832 292.177 109.489 289.777 131.954C287.811 150.356 280.568 166.339 268.42 177.057C292.094 152.755 292.824 104.762 268.108 61.9541C243.393 19.1463 201.466 -4.21876 168.582 4.13317ZM128.947 52.1659C130.999 40.9072 135.203 30.8873 141.472 22.8713C135.31 31.094 131.109 41.0943 128.947 52.1659ZM262.754 65.0458C287.562 108.015 287.668 155.669 264.967 179.169C276.758 168.799 283.614 152.984 285.204 134.61C287.124 112.421 281.348 86.5817 267.374 62.3781C253.4 38.1745 233.911 20.2525 213.735 10.8209C197.027 3.01035 179.903 1.04081 165.027 6.06731C196.729 -1.84236 237.945 22.0766 262.754 65.0458ZM204.993 187.526C216.212 191.81 227.511 193.457 238.092 192.096C227.669 193.697 216.347 192.043 204.993 187.526ZM140.394 22.8785C133.796 31.1039 129.567 41.7363 127.803 53.827C129.702 41.9693 133.925 31.3611 140.394 22.8785ZM203.152 187.688C214.808 192.585 226.519 194.531 237.342 193.062C226.714 194.819 214.973 192.867 203.152 187.688ZM161.501 7.98788C175.881 3.09815 192.656 5.32229 209.148 13.4522C228.845 23.1618 248.041 41.2594 262.019 65.4698C275.997 89.6801 282.072 115.353 280.632 137.266C279.427 155.614 272.966 171.253 261.541 181.262C283.255 158.574 282.3 111.267 257.399 68.1374C232.497 25.0074 192.006 0.526942 161.501 7.98788ZM126.741 55.341C128.167 42.5138 132.347 31.3699 139.183 23.0442C132.498 31.6831 128.328 42.7982 126.741 55.341ZM252.044 71.2291C277.037 114.519 278.855 161.47 258.141 183.336C269.191 173.702 275.248 158.244 276.061 139.923C277.02 118.285 270.646 92.7785 256.664 68.5614C242.682 44.3444 223.78 26.071 204.562 16.0829C188.288 7.62567 171.873 5.14287 158.005 9.89466C187.299 2.88953 227.05 27.9389 252.044 71.2291ZM201.45 187.855C213.449 193.356 225.466 195.613 236.418 194.062C225.703 195.953 213.651 193.691 201.45 187.855ZM137.854 23.3448C130.859 31.6781 126.792 43.2472 125.746 56.7317C126.981 43.5894 131.035 32.0532 137.854 23.3448ZM199.867 188.025C212.129 194.123 224.36 196.703 235.339 195.097C224.644 197.1 212.372 194.518 199.867 188.025ZM154.54 11.7876C167.879 7.17443 183.923 9.9198 199.974 18.7131C218.715 28.9798 237.324 47.4294 251.309 71.6531C265.295 95.8768 271.968 121.217 271.489 142.58C271.079 160.878 265.434 176.145 254.77 185.391C274.468 164.355 271.774 117.77 246.689 74.3208C221.603 30.8715 182.607 5.24581 154.54 11.7876ZM124.807 58.0175C125.436 43.9417 129.337 32.0224 136.419 23.7621C129.538 32.4663 125.657 44.3492 124.807 58.0175ZM198.385 188.202C210.841 194.886 223.205 197.8 234.122 196.163C223.541 198.259 211.131 195.348 198.385 188.202ZM134.887 24.2826C127.781 32.3981 124.097 44.6014 123.913 59.2124C124.353 45.0829 128.011 32.9188 134.887 24.2826ZM196.992 188.385C209.581 195.645 222.003 198.903 232.78 197.26C222.398 199.431 209.924 196.183 196.992 188.385ZM123.057 60.3271C122.771 45.2286 126.195 32.8017 133.266 24.8958C126.455 33.4083 123.065 45.7945 123.057 60.3271ZM195.677 188.576C208.345 196.401 220.757 200.011 231.325 198.387C221.22 200.616 208.749 197.025 195.677 188.576ZM131.562 25.5932C124.58 33.2299 121.454 45.8253 122.235 61.3704C121.792 46.4877 124.872 33.9331 131.562 25.5932Z" fill="white"/>
<path fill-rule="evenodd" clip-rule="evenodd" d="M135.042 261.152C135.486 260.914 135.926 260.668 136.364 260.415C136.821 260.151 137.273 259.881 137.72 259.604C138.164 259.367 138.604 259.122 139.041 258.869C139.499 258.605 139.951 258.334 140.398 258.055C140.841 257.82 141.282 257.576 141.719 257.324C142.177 257.059 142.63 256.786 143.075 256.506C143.519 256.273 143.96 256.03 144.396 255.778C144.855 255.513 145.308 255.239 145.753 254.957C146.197 254.725 146.638 254.484 147.074 254.232C147.534 253.966 147.986 253.691 148.431 253.406C148.875 253.178 149.316 252.937 149.751 252.686C150.212 252.42 150.664 252.143 151.108 251.856C151.553 251.63 151.994 251.391 152.429 251.14C152.89 250.874 153.342 250.595 153.785 250.304C154.232 250.082 154.672 249.845 155.106 249.594C178.766 235.935 175.166 185.405 147.066 136.734C118.965 88.0632 77.0058 59.681 53.3463 73.3409C52.912 73.5916 52.4869 73.8547 52.071 74.1301C51.5977 74.3682 51.1302 74.6203 50.6688 74.8867C50.2338 75.1378 49.8071 75.3999 49.3887 75.6728C48.9177 75.9135 48.4519 76.1667 47.9913 76.4326C47.5558 76.684 47.1277 76.9453 46.707 77.2161C46.2381 77.4589 45.7736 77.7129 45.3139 77.9784C44.8778 78.2302 44.4484 78.4907 44.0259 78.7599C43.5587 79.0044 43.0955 79.2592 42.6364 79.5242C42.1998 79.7763 41.7694 80.0363 41.3452 80.304C40.8795 80.55 40.4174 80.8054 39.9589 81.0701C39.5219 81.3224 39.0905 81.5819 38.6648 81.8484C38.2005 82.0957 37.7393 82.3515 37.2815 82.6159C36.844 82.8685 36.4118 83.1275 35.9848 83.393C35.5217 83.6414 35.0614 83.8977 34.604 84.1617C34.1662 84.4145 33.7332 84.6732 33.3051 84.9377C32.843 85.1872 32.3834 85.4438 31.9266 85.7076C-3.56275 106.197 -9.55277 162.263 18.5475 210.934C46.6477 259.605 98.1972 282.451 133.687 261.961C134.143 261.697 134.595 261.428 135.042 261.152ZM110.387 240.569C93.5548 229.184 76.1215 210.026 62.1213 185.777C48.1211 161.528 40.2466 136.851 38.8025 116.581C37.7234 101.435 40.2366 88.9176 46.297 80.7985C60.618 77.1915 76.4962 79.2239 91.9234 86.0609C112.578 95.2147 132.361 112.962 146.331 137.158C160.301 161.355 165.779 187.361 163.379 209.826C161.586 226.604 155.407 241.372 145.123 251.97C135.062 253.159 122.965 249.077 110.387 240.569ZM143.515 253.562C143.738 253.349 143.96 253.135 144.18 252.919C119.968 254.909 85.5526 228.057 61.3869 186.201C37.2211 144.345 31.1751 101.114 45.0038 81.1408C44.7067 81.2232 44.4104 81.3081 44.1148 81.3955C36.7953 89.7825 33.4766 103.106 34.233 119.241C35.196 139.783 42.7697 164.626 56.7663 188.869C70.763 213.111 88.4903 232.092 105.799 243.197C119.394 251.919 132.592 255.707 143.515 253.562ZM141.942 254.999C142.083 254.875 142.224 254.75 142.364 254.625C116.87 258.502 80.6653 231.959 56.0319 189.293C31.3986 146.626 26.5142 102 42.6186 81.8611C42.4397 81.9196 42.2612 81.979 42.0829 82.0393C33.4454 90.6804 29.267 104.802 29.663 121.9C30.1451 142.715 37.4184 167.724 51.4114 191.96C65.4044 216.197 83.4256 235 101.211 245.825C115.82 254.717 130.139 258.159 141.942 254.999ZM140.404 256.301C140.438 256.273 140.472 256.246 140.506 256.218C113.701 261.94 75.7288 235.775 50.677 192.384C25.6253 148.993 21.9518 103.025 40.3097 82.6735C40.2687 82.689 40.2278 82.7045 40.1869 82.72C30.1793 91.606 25.0912 106.521 25.0925 124.558C25.094 145.647 32.0672 170.822 46.0565 195.052C60.0458 219.282 78.3608 237.908 96.6237 248.454C112.244 257.474 127.705 260.525 140.404 256.301ZM163.064 217.631C160.901 228.703 156.701 238.703 150.539 246.926C156.808 238.91 161.012 228.89 163.064 217.631ZM23.5911 92.7399C11.4428 103.457 4.20027 119.44 2.23414 137.843C-0.165972 160.308 5.31187 186.314 19.2819 210.51C33.2519 234.707 53.0346 252.454 73.6897 261.608C90.61 269.106 108.073 270.826 123.429 265.664C90.5451 274.015 48.6175 250.65 23.9024 207.843C-0.812692 165.035 -0.0836126 117.042 23.5911 92.7399ZM85.0062 82.4313C74.2301 78.5786 63.4505 77.2097 53.3738 78.631C63.5762 77.4054 74.3367 78.7681 85.0062 82.4313ZM29.2573 204.751C54.0655 247.72 95.2819 271.639 126.984 263.729C112.108 268.756 94.984 266.786 78.2759 258.976C58.1001 249.544 38.6108 231.622 24.6368 207.419C10.6628 183.215 4.88661 157.376 6.8065 135.187C8.3964 116.812 15.2528 100.998 27.0439 90.6278C4.34284 114.128 4.44908 161.782 29.2573 204.751ZM164.208 215.969C162.309 227.827 158.086 238.435 151.616 246.918C158.215 238.693 162.444 228.06 164.208 215.969ZM53.919 77.7012C64.3414 76.0997 75.6637 77.7537 87.0169 82.2709C75.7981 77.987 64.4999 76.3397 53.919 77.7012ZM165.27 214.456C163.683 226.998 159.513 238.113 152.828 246.752C159.664 238.426 163.844 227.283 165.27 214.456ZM30.4702 88.5344C19.0454 98.5434 12.584 114.183 11.3785 132.531C9.93887 154.444 16.0138 180.117 29.9917 204.327C43.9696 228.537 63.1655 246.635 82.8625 256.345C99.3547 264.474 116.13 266.699 130.51 261.809C100.004 269.27 59.5134 244.789 34.6122 201.659C9.7111 158.529 8.75598 111.223 30.4702 88.5344ZM88.859 82.1084C77.0373 76.9296 65.2965 74.9775 54.668 76.7352C65.4919 75.2654 77.2031 77.2113 88.859 82.1084ZM39.9672 198.568C64.9608 241.858 104.712 266.907 134.006 259.902C120.138 264.654 103.722 262.171 87.4493 253.714C68.2308 243.726 49.3284 225.452 35.3466 201.235C21.3649 177.018 14.9909 151.512 15.9502 129.874C16.7626 111.552 22.8201 96.0948 33.8694 86.4603C13.1558 108.327 14.9736 155.277 39.9672 198.568ZM166.265 213.065C165.03 226.207 160.976 237.743 154.157 246.452C161.152 238.118 165.219 226.549 166.265 213.065ZM55.5929 75.7344C66.3073 73.8433 78.3601 76.1052 90.5608 81.9422C78.5618 76.4404 66.5441 74.1832 55.5929 75.7344ZM167.204 211.779C166.354 225.447 162.472 237.33 155.592 246.034C162.674 237.774 166.574 225.855 167.204 211.779ZM37.2413 84.4059C26.5765 93.6516 20.9318 108.919 20.5216 127.216C20.0426 148.579 26.716 173.92 40.7016 198.144C54.6871 222.367 73.2959 240.817 92.0364 251.084C108.087 259.877 124.132 262.622 137.471 258.009C109.404 264.551 70.4075 238.925 45.3221 195.476C20.2366 152.027 17.5424 105.442 37.2413 84.4059ZM92.1441 81.7712C79.6392 75.2789 67.3667 72.6968 56.6719 74.7002C67.6502 73.0936 79.8817 75.6738 92.1441 81.7712ZM168.098 210.584C167.658 224.714 164 236.878 157.124 245.514C164.23 237.398 167.913 225.195 168.098 210.584ZM57.8885 73.6339C68.4697 71.5378 80.88 74.449 93.6259 81.5947C81.1693 74.9111 68.8058 71.997 57.8885 73.6339ZM168.953 209.469C168.945 224.002 165.556 236.388 158.745 244.901C165.816 236.995 169.24 224.568 168.953 209.469ZM95.0189 81.4113C82.0865 73.6138 69.6123 70.3661 59.2301 72.5367C70.0077 70.8942 82.4293 74.1519 95.0189 81.4113ZM169.776 208.426C170.218 223.309 167.139 235.864 160.449 244.203C167.431 236.567 170.557 223.971 169.776 208.426ZM60.6862 71.4095C70.7909 69.181 83.2619 72.7714 96.3338 81.2205C83.6661 73.3961 71.2537 69.7858 60.6862 71.4095Z" fill="white"/>
</svg>
