<svg width="25" height="25" viewBox="0 0 25 25" fill="none" xmlns="http://www.w3.org/2000/svg">
<path d="M2.66773 0.00031886C1.19148 0.00031886 0 1.20237 0 2.68925V22.3219C0 23.8086 1.19148 25 2.66773 25H22.3323C23.8085 25 25 23.8085 25 22.3219V2.68872C25 1.20205 23.8085 0 22.3323 0L2.66773 0.00031886ZM22.0161 2.68925C22.8279 2.68925 23.5028 3.35348 23.5028 4.17591C23.5133 7.75035 23.5133 11.6201 23.5028 15.1948C23.5028 15.5005 23.218 15.7853 22.9018 15.7853H21.4467C20.1077 19.423 16.5964 22.0382 12.495 22.0382C7.24399 22.0382 2.97354 17.7678 2.97354 12.5167C2.97354 7.25515 7.24394 2.9847 12.495 2.9847C17.7459 2.9847 22.0164 7.2551 22.0164 12.5167C22.0164 13.2337 21.9425 13.9191 21.7843 14.5939H22.3115V5.63155C22.2167 5.65272 22.1112 5.6631 22.0164 5.6631C21.1939 5.6631 20.5191 4.99886 20.5191 4.17643C20.5297 3.28014 21.1306 2.68977 22.0164 2.68977L22.0161 2.68925ZM12.4947 4.17591C7.88697 4.17591 4.16465 7.89792 4.16465 12.5161C4.16465 17.1238 7.88665 20.8461 12.4947 20.8461C15.9427 20.8461 18.9054 18.7583 20.1706 15.785H17.6083C17.4501 15.9644 17.2183 16.0802 16.9546 16.0802C16.4592 16.0802 16.0583 15.6796 16.0583 15.1945C16.0583 14.699 16.459 14.2982 16.9546 14.2982C17.2182 14.2982 17.4501 14.4142 17.6083 14.5934H20.5712C20.74 13.9291 20.8348 13.2331 20.8348 12.5162C20.8348 7.89788 17.1022 4.17604 12.4947 4.17604L12.4947 4.17591ZM12.4947 9.2266C14.2977 9.2266 15.7739 10.7028 15.7739 12.5058C15.7739 14.2982 14.2977 15.7745 12.4947 15.7745C10.7023 15.7745 9.22601 14.2983 9.22601 12.5058C9.22601 10.7028 10.7023 9.2266 12.4947 9.2266Z" fill="white"/>
</svg>
