<svg width="25" height="22" viewBox="0 0 25 22" fill="none" xmlns="http://www.w3.org/2000/svg">
<path d="M24.9286 12.7418H19.9932C19.1371 12.7418 18.4824 13.4469 18.4824 14.2526C18.4824 15.1088 19.1371 15.7635 19.9932 15.7635H24.8782C24.9286 15.7635 24.9789 15.7131 24.9789 15.6627V12.8425C25.0293 12.7922 24.9789 12.7418 24.9286 12.7418ZM20.5472 15.1088C20.0436 15.1088 19.6911 14.7059 19.6911 14.2526C19.6911 13.749 20.094 13.3965 20.5472 13.3965C21.0508 13.3965 21.4033 13.7994 21.4033 14.2526C21.4033 14.7562 21.0005 15.1088 20.5472 15.1088Z" fill="white"/>
<path d="M17.1228 1.81323L8.71289 5.89244H19.8429L17.1228 1.81323Z" fill="white"/>
<path d="M17.324 14.252C17.324 12.7916 18.5327 11.5829 19.9932 11.5829H22.763V8.15842C22.763 7.55409 22.2594 7.00012 21.6047 7.00012H1.15829C0.503606 7.00012 0 7.50373 0 8.15842V20.3457C0 20.95 0.503606 21.504 1.15829 21.504H21.6047C22.209 21.504 22.763 21.0004 22.763 20.3457V16.9212H19.9932C18.4823 16.9212 17.324 15.7125 17.324 14.252Z" fill="white"/>
<path d="M14.6053 1.76262L12.7923 0L3.12305 5.89248H6.09432L14.6053 1.76262Z" fill="white"/>
</svg>
