<svg width="20" height="23" viewBox="0 0 20 23" fill="none" xmlns="http://www.w3.org/2000/svg">
<path d="M13.1367 11.2344C13.1367 10.5469 12.6211 9.98828 12.0195 9.98828C11.375 9.98828 10.8594 10.5469 10.8594 11.2344C10.8594 11.8789 11.375 12.4375 12.0195 12.4375C12.6211 12.4375 13.1367 11.8789 13.1367 11.2344ZM7.98047 9.98828C7.37891 9.98828 6.86328 10.5469 6.86328 11.2344C6.86328 11.8789 7.37891 12.4375 7.98047 12.4375C8.625 12.4375 9.09766 11.8789 9.09766 11.2344C9.14062 10.5469 8.625 9.98828 7.98047 9.98828ZM19.625 3.02734C19.625 1.78125 18.5938 0.75 17.3477 0.75H2.60938C1.36328 0.75 0.375 1.78125 0.375 3.02734V17.8945C0.375 19.1836 1.36328 20.1719 2.60938 20.1719H15.0703L14.5117 18.1523C17.7344 21.1172 16.832 20.3438 19.625 22.75V3.02734ZM16.4883 13.4688C16.4883 13.4688 15.543 15.0586 13.0938 15.1445C13.0938 15.1445 12.707 14.6719 12.3633 14.2422C13.8242 13.8555 14.3828 12.9531 14.3828 12.9531C13.9102 13.2539 13.4805 13.4258 13.0938 13.5977C10.7305 14.5859 8.10938 14.2422 6.21875 13.2109C6.21875 13.168 5.96094 13.0391 5.78906 12.9102C5.78906 12.9102 6.30469 13.8125 7.72266 14.2422C7.37891 14.6289 6.99219 15.1445 6.99219 15.1445C4.54297 15.0586 3.64062 13.4688 3.64062 13.4688C3.64062 9.90234 5.1875 7.06641 5.1875 7.06641C6.77734 5.86328 8.28125 5.90625 8.28125 5.90625L8.41016 6.03516C6.43359 6.59375 5.53125 7.45312 5.53125 7.45312C5.53125 7.45312 5.74609 7.32422 6.17578 7.15234C8.71094 6.03516 11.7617 6.03516 14.3828 7.45312C14.3828 7.45312 13.5234 6.63672 11.6328 6.07812L11.8047 5.90625C11.8047 5.90625 13.3086 5.86328 14.8984 7.06641C14.8984 7.06641 16.4883 9.90234 16.4883 13.4688Z" fill="#F2F7FF"/>
</svg>
