<svg width="34" height="25" viewBox="0 0 34 25" fill="none" xmlns="http://www.w3.org/2000/svg">
<path d="M22.651 0.000809666C22.4495 -0.00367737 22.2489 0.010517 22.0529 0.0426063C20.8765 0.235142 19.8426 1.06076 19.4435 2.25783C19.3567 2.51796 19.2784 2.77819 19.2134 3.04188C18.2204 2.95068 17.3903 2.93378 16.8757 2.93378C16.3612 2.93378 15.531 2.95068 14.538 3.04188C14.4731 2.77866 14.3946 2.51896 14.308 2.25927C13.9089 1.0622 12.8749 0.236583 11.6986 0.0440476C11.3064 -0.0201288 10.8979 -0.0130599 10.4923 0.0728728C8.86552 0.417769 6.54211 1.08697 4.7099 2.57779C4.69016 2.59393 4.67098 2.61076 4.6524 2.62823C4.07413 3.16896 3.67531 3.8991 3.18307 4.92849C2.69083 5.95787 2.18029 7.25282 1.71086 8.7291C0.772002 11.6817 0 15.3532 0 18.9923C4.8924e-05 19.1827 0.0490716 19.3699 0.142332 19.5357C1.86889 22.607 5.61729 23.7715 7.9131 24.2357C9.17952 24.4916 10.4841 23.9703 11.2399 22.9198L12.15 21.6543C13.5103 21.9399 15.0849 22.1285 16.8757 22.1285C18.6665 22.1285 20.2412 21.9399 21.6014 21.6543L22.5101 22.9183C23.2656 23.9699 24.5718 24.4901 25.8383 24.2342C28.1342 23.7701 31.8811 22.6055 33.6077 19.5343C33.7009 19.3684 33.75 19.1813 33.75 18.9909C33.75 15.3517 32.9794 11.6801 32.0406 8.72766C31.5711 7.25143 31.0592 5.95645 30.5669 4.92705C30.0747 3.89765 29.6755 3.16752 29.0976 2.62679C29.079 2.60932 29.0598 2.59249 29.0401 2.57635C27.208 1.08563 24.8853 0.416347 23.2577 0.0714316C23.0549 0.0284653 22.8525 0.0052967 22.651 0.000809666ZM22.5949 2.21315C22.6625 2.21523 22.7316 2.22306 22.8005 2.23765C24.2388 2.54245 26.2586 3.19161 27.6081 4.27271C27.6987 4.36453 28.1457 4.98479 28.5757 5.88405C29.0131 6.79878 29.4942 8.01061 29.9358 9.39929C30.7887 12.0813 31.4614 15.4299 31.5086 18.6479C30.2872 20.5099 27.3029 21.6793 25.4013 22.0637C24.9807 22.1487 24.5631 21.9863 24.3029 21.6241L23.8759 21.0317C24.3178 20.8814 24.7335 20.7253 25.1037 20.5676C26.9543 19.7796 27.9776 18.9203 27.9776 18.9203C28.088 18.8259 28.1788 18.7107 28.2447 18.5812C28.3107 18.4517 28.3505 18.3104 28.362 18.1655C28.3735 18.0205 28.3564 17.8747 28.3117 17.7364C28.267 17.5981 28.1955 17.4699 28.1014 17.3593C28.0073 17.2487 27.8923 17.1577 27.7631 17.0916C27.6339 17.0255 27.493 16.9855 27.3484 16.974C27.2038 16.9625 27.0584 16.9797 26.9204 17.0246C26.7824 17.0694 26.6546 17.1411 26.5442 17.2354C26.5442 17.2354 25.8468 17.8474 24.2411 18.5311C22.6353 19.2149 20.1923 19.9147 16.8757 19.9147C13.5591 19.9147 11.1161 19.2149 9.51038 18.5311C7.90466 17.8474 7.20719 17.2354 7.20719 17.2354C7.01162 17.0631 6.7616 16.9656 6.50128 16.9602C6.27195 16.9551 6.04675 17.0218 5.85696 17.151C5.66717 17.2802 5.52221 17.4654 5.44223 17.6809C5.36224 17.8964 5.35118 18.1315 5.4106 18.3536C5.47003 18.5758 5.59697 18.7738 5.7738 18.9203C5.7738 18.9203 6.79712 19.7796 8.64776 20.5676C9.01794 20.7253 9.43362 20.8814 9.87556 21.0317L9.44856 21.6255C9.18711 21.9889 8.76945 22.1516 8.34872 22.0665C6.44713 21.6821 3.46277 20.5114 2.24137 18.6493C2.28861 15.4313 2.96134 12.0829 3.81422 9.40073C4.25581 8.01201 4.73833 6.80017 5.17572 5.88549C5.6057 4.98629 6.05164 4.36563 6.14185 4.27416C7.49131 3.19314 9.51174 2.54391 10.9495 2.23909C11.5004 2.12236 12.0314 2.4158 12.2133 2.96116C12.2605 3.10287 12.2948 3.23404 12.3312 3.36616C10.6856 3.69348 8.84993 4.26192 7.11086 5.29745C6.98098 5.36893 6.86677 5.46588 6.77505 5.58252C6.68332 5.69917 6.61594 5.83313 6.57694 5.97642C6.53793 6.11971 6.52809 6.26941 6.548 6.4166C6.56791 6.56378 6.61716 6.70545 6.69282 6.83316C6.76848 6.96086 6.86901 7.072 6.98841 7.15994C7.10781 7.24789 7.24364 7.31085 7.38782 7.34507C7.532 7.37929 7.68158 7.38408 7.82764 7.35914C7.9737 7.33421 8.11327 7.28006 8.23802 7.19992C11.4454 5.29011 15.4091 5.14756 16.8757 5.14756C18.3423 5.14756 22.3061 5.29011 25.5134 7.19992C25.6382 7.28006 25.7777 7.33421 25.9238 7.35914C26.0699 7.38408 26.2194 7.37929 26.3636 7.34507C26.5078 7.31085 26.6436 7.24789 26.763 7.15994C26.8824 7.072 26.983 6.96086 27.0586 6.83316C27.1343 6.70545 27.1835 6.56378 27.2034 6.4166C27.2233 6.26941 27.2135 6.11971 27.1745 5.97642C27.1355 5.83313 27.0681 5.69917 26.9764 5.58252C26.8847 5.46588 26.7705 5.36893 26.6406 5.29745C24.901 4.26164 23.0647 3.69343 21.4188 3.36616C21.4553 3.23367 21.4893 3.10189 21.5367 2.95972C21.6959 2.48252 22.1217 2.19857 22.5949 2.21315ZM12.1169 11.0452C11.4424 11.0486 10.7966 11.358 10.3207 11.9057C9.84483 12.4533 9.57766 13.1946 9.57766 13.9674C9.57766 14.7401 9.84483 15.4814 10.3207 16.0291C10.7966 16.5767 11.4424 16.8861 12.1169 16.8895C12.7914 16.8861 13.4373 16.5767 13.9132 16.0291C14.389 15.4814 14.6562 14.7401 14.6562 13.9674C14.6562 13.1946 14.389 12.4533 13.9132 11.9057C13.4373 11.358 12.7914 11.0486 12.1169 11.0452ZM21.6201 11.0452C20.9368 11.0452 20.2815 11.3562 19.7984 11.9097C19.3152 12.4633 19.0438 13.2141 19.0438 13.9969C19.0438 14.7798 19.3152 15.5305 19.7984 16.0841C20.2815 16.6376 20.9368 16.9486 21.6201 16.9486C22.3034 16.9486 22.9587 16.6376 23.4419 16.0841C23.925 15.5305 24.1965 14.7798 24.1965 13.9969C24.1965 13.2141 23.925 12.4633 23.4419 11.9097C22.9587 11.3562 22.3034 11.0452 21.6201 11.0452Z" fill="white"/>
</svg>
