<svg width="20" height="20" viewBox="0 0 20 20" fill="none" xmlns="http://www.w3.org/2000/svg">
<path d="M10 4.80859C7.25 4.80859 5.05859 7.04297 5.05859 9.75C5.05859 12.5 7.25 14.6914 10 14.6914C12.707 14.6914 14.9414 12.5 14.9414 9.75C14.9414 7.04297 12.707 4.80859 10 4.80859ZM10 12.9727C8.23828 12.9727 6.77734 11.5547 6.77734 9.75C6.77734 7.98828 8.19531 6.57031 10 6.57031C11.7617 6.57031 13.1797 7.98828 13.1797 9.75C13.1797 11.5547 11.7617 12.9727 10 12.9727ZM16.2734 4.63672C16.2734 3.99219 15.7578 3.47656 15.1133 3.47656C14.4688 3.47656 13.9531 3.99219 13.9531 4.63672C13.9531 5.28125 14.4688 5.79688 15.1133 5.79688C15.7578 5.79688 16.2734 5.28125 16.2734 4.63672ZM19.5391 5.79688C19.4531 4.25 19.1094 2.875 17.9922 1.75781C16.875 0.640625 15.5 0.296875 13.9531 0.210938C12.3633 0.125 7.59375 0.125 6.00391 0.210938C4.45703 0.296875 3.125 0.640625 1.96484 1.75781C0.847656 2.875 0.503906 4.25 0.417969 5.79688C0.332031 7.38672 0.332031 12.1562 0.417969 13.7461C0.503906 15.293 0.847656 16.625 1.96484 17.7852C3.125 18.9023 4.45703 19.2461 6.00391 19.332C7.59375 19.418 12.3633 19.418 13.9531 19.332C15.5 19.2461 16.875 18.9023 17.9922 17.7852C19.1094 16.625 19.4531 15.293 19.5391 13.7461C19.625 12.1562 19.625 7.38672 19.5391 5.79688ZM17.4766 15.4219C17.1758 16.2812 16.4883 16.9258 15.6719 17.2695C14.3828 17.7852 11.375 17.6562 10 17.6562C8.58203 17.6562 5.57422 17.7852 4.32812 17.2695C3.46875 16.9258 2.82422 16.2812 2.48047 15.4219C1.96484 14.1758 2.09375 11.168 2.09375 9.75C2.09375 8.375 1.96484 5.36719 2.48047 4.07812C2.82422 3.26172 3.46875 2.61719 4.32812 2.27344C5.57422 1.75781 8.58203 1.88672 10 1.88672C11.375 1.88672 14.3828 1.75781 15.6719 2.27344C16.4883 2.57422 17.1328 3.26172 17.4766 4.07812C17.9922 5.36719 17.8633 8.375 17.8633 9.75C17.8633 11.168 17.9922 14.1758 17.4766 15.4219Z" fill="#F2F7FF"/>
</svg>
