<svg width="28" height="26" viewBox="0 0 28 26" fill="none" xmlns="http://www.w3.org/2000/svg">
<path d="M4.5752 0C2.31036 0 0.450195 1.76716 0.450195 3.91875V21.7312C0.450195 23.8828 2.31036 25.65 4.5752 25.65H23.3252C25.59 25.65 27.4502 23.8828 27.4502 21.7312V3.91875C27.4502 1.76716 25.59 0 23.3252 0H4.5752ZM4.5752 2.1375H23.3252C24.3739 2.1375 25.2002 2.92251 25.2002 3.91875V21.7312C25.2002 22.7275 24.3739 23.5125 23.3252 23.5125H4.5752C3.52653 23.5125 2.7002 22.7275 2.7002 21.7312V3.91875C2.7002 2.92251 3.52653 2.1375 4.5752 2.1375ZM7.5752 4.9875C7.07791 4.9875 6.601 5.17517 6.24937 5.50922C5.89774 5.84327 5.7002 6.29633 5.7002 6.76875C5.7002 7.24117 5.89774 7.69423 6.24937 8.02828C6.601 8.36233 7.07791 8.55 7.5752 8.55C8.07248 8.55 8.54939 8.36233 8.90102 8.02828C9.25265 7.69423 9.4502 7.24117 9.4502 6.76875C9.4502 6.29633 9.25265 5.84327 8.90102 5.50922C8.54939 5.17517 8.07248 4.9875 7.5752 4.9875ZM6.4502 9.975C6.03545 9.975 5.7002 10.2935 5.7002 10.6875V19.95C5.7002 20.344 6.03545 20.6625 6.4502 20.6625H8.7002C9.11495 20.6625 9.4502 20.344 9.4502 19.95V10.6875C9.4502 10.2935 9.11495 9.975 8.7002 9.975H6.4502ZM11.7002 9.975C11.2854 9.975 10.9502 10.2935 10.9502 10.6875V19.95C10.9502 20.344 11.2854 20.6625 11.7002 20.6625H13.9502C14.3649 20.6625 14.7002 20.344 14.7002 19.95V14.6062C14.7002 13.6237 15.5409 12.825 16.5752 12.825C17.6094 12.825 18.4502 13.6237 18.4502 14.6062V19.95C18.4502 20.344 18.7854 20.6625 19.2002 20.6625H21.4502C21.8649 20.6625 22.2002 20.344 22.2002 19.95V14.25C22.2002 11.8923 20.1819 9.975 17.7002 9.975C16.5467 9.975 15.4974 10.3925 14.7002 11.073V10.6875C14.7002 10.2935 14.3649 9.975 13.9502 9.975H11.7002Z" fill="white"/>
</svg>
