<svg width="27" height="26" viewBox="0 0 27 26" fill="none" xmlns="http://www.w3.org/2000/svg">
<path d="M4.71855 0C2.56697 0 0.799805 1.76716 0.799805 3.91875V21.7312C0.799805 23.8828 2.56697 25.65 4.71855 25.65H22.5311C24.6826 25.65 26.4498 23.8828 26.4498 21.7312V3.91875C26.4498 1.76716 24.6826 0 22.5311 0H4.71855ZM4.71855 2.1375H22.5311C23.5273 2.1375 24.3123 2.92251 24.3123 3.91875V21.7312C24.3123 22.7275 23.5273 23.5125 22.5311 23.5125H4.71855C3.72232 23.5125 2.9373 22.7275 2.9373 21.7312V3.91875C2.9373 2.92251 3.72232 2.1375 4.71855 2.1375ZM15.3601 5.0042C15.0876 5.01592 14.8298 5.1314 14.6397 5.32699C14.4495 5.52259 14.3413 5.78348 14.3373 6.05625V15.675C14.3373 17.2622 13.0745 18.525 11.4873 18.525C9.90014 18.525 8.6373 17.2622 8.6373 15.675C8.6373 14.0878 9.90014 12.825 11.4873 12.825C11.6289 12.827 11.7695 12.8008 11.901 12.748C12.0324 12.6952 12.152 12.6168 12.2529 12.5174C12.3537 12.4179 12.4338 12.2994 12.4885 12.1688C12.5431 12.0381 12.5713 11.8979 12.5713 11.7562C12.5713 11.6146 12.5431 11.4744 12.4885 11.3437C12.4338 11.2131 12.3537 11.0946 12.2529 10.9951C12.152 10.8957 12.0324 10.8173 11.901 10.7645C11.7695 10.7117 11.6289 10.6855 11.4873 10.6875C8.74532 10.6875 6.4998 12.933 6.4998 15.675C6.4998 18.417 8.74532 20.6625 11.4873 20.6625C14.2293 20.6625 16.4748 18.417 16.4748 15.675V10.2144C17.3783 10.9134 18.4573 11.4 19.6811 11.4C19.8227 11.402 19.9633 11.3758 20.0947 11.323C20.2261 11.2702 20.3457 11.1918 20.4466 11.0924C20.5475 10.9929 20.6275 10.8744 20.6822 10.7438C20.7369 10.6131 20.765 10.4729 20.765 10.3312C20.765 10.1896 20.7369 10.0494 20.6822 9.91873C20.6275 9.78806 20.5475 9.66957 20.4466 9.57013C20.3457 9.47069 20.2261 9.39228 20.0947 9.33947C19.9633 9.28666 19.8227 9.2605 19.6811 9.2625C17.8973 9.2625 16.4748 7.83999 16.4748 6.05625C16.4727 5.91337 16.4419 5.77236 16.3844 5.64156C16.3268 5.51076 16.2436 5.39284 16.1397 5.29475C16.0358 5.19667 15.9133 5.12042 15.7794 5.07051C15.6454 5.02061 15.5029 4.99806 15.3601 5.0042Z" fill="white"/>
</svg>
