<svg width="32" height="26" viewBox="0 0 32 26" fill="none" xmlns="http://www.w3.org/2000/svg">
<path d="M22.1893 0C18.1739 0 14.9153 3.12697 14.8283 6.97749C11.2781 6.56711 8.96625 5.28782 7.54812 4.02729C5.97543 2.62939 5.47756 1.38743 5.47756 1.38743C5.40488 1.21092 5.28472 1.05627 5.12944 0.939372C4.97416 0.822477 4.78937 0.747562 4.59409 0.722335C4.3988 0.697107 4.20006 0.722478 4.01833 0.795837C3.83659 0.869196 3.67841 0.987895 3.56007 1.13972C3.56007 1.13972 2.22879 2.85 2.22879 5.34375C2.22879 6.76945 2.69586 7.82436 3.25252 8.71838C3.23201 8.70913 3.09369 8.66272 3.09369 8.66272C2.91695 8.57767 2.71985 8.53967 2.52276 8.55263C2.32568 8.56559 2.13576 8.62906 1.97265 8.73646C1.80954 8.84386 1.67916 8.9913 1.59498 9.16354C1.5108 9.33578 1.47589 9.52656 1.49385 9.71616C1.49385 9.71616 1.92066 12.723 4.8538 14.9208L4.54769 14.9945C4.38153 15.0345 4.22723 15.111 4.0969 15.2181C3.96656 15.3252 3.86372 15.4599 3.79644 15.6117C3.72916 15.7634 3.69928 15.9282 3.70912 16.093C3.71896 16.2578 3.76827 16.4181 3.85318 16.5614C3.85318 16.5614 4.35055 17.3723 5.39237 18.2258C6.01008 18.7318 6.91748 19.254 7.98706 19.7371C6.67352 20.1997 4.71484 20.6625 1.85915 20.6625C1.64606 20.6625 1.43747 20.7216 1.25834 20.8329C1.07921 20.9441 0.937123 21.1027 0.849081 21.2898C0.76104 21.4768 0.73077 21.6843 0.761893 21.8875C0.793016 22.0906 0.884215 22.2809 1.02458 22.4354C1.02458 22.4354 1.87196 23.3351 3.54707 24.1178C5.22218 24.9006 7.80255 25.65 11.4697 25.65C17.916 25.65 22.5476 22.6697 25.438 18.8924C28.3285 15.115 29.582 10.5885 29.582 7.125C29.582 6.90523 29.5678 6.68855 29.5474 6.47373C31.1082 5.02427 31.6939 3.93459 31.7219 3.88118C31.8624 3.60971 31.81 3.28369 31.5919 3.06709C31.3746 2.84978 31.0377 2.78858 30.7516 2.91541L30.6317 2.96829C30.529 3.01389 30.4262 3.05978 30.3227 3.10466C30.6236 2.64225 30.8611 2.1481 31.0259 1.63652C31.1176 1.35437 31.0186 1.04519 30.7761 0.862793C30.5337 0.680393 30.1997 0.660866 29.9372 0.815479C29.0336 1.34474 28.1675 1.71527 27.266 1.96355C25.9393 0.750599 24.1534 0 22.1893 0ZM22.1893 2.1375C25.06 2.1375 27.3642 4.35824 27.3642 7.125C27.3642 10.074 26.2151 14.2756 23.6534 17.6232C21.0917 20.9709 17.2215 23.5125 11.4697 23.5125C8.68622 23.5125 6.83462 23.0272 5.44724 22.5022C6.90053 22.2847 8.15184 21.9944 9.05122 21.6589C10.6108 21.077 11.4524 20.4051 11.4524 20.4051C11.6068 20.2774 11.7217 20.1112 11.7847 19.9248C11.8477 19.7383 11.8562 19.5388 11.8094 19.348C11.7626 19.1572 11.6622 18.9825 11.5193 18.843C11.3764 18.7035 11.1964 18.6045 10.999 18.557C8.98619 18.072 7.69524 17.2876 6.88537 16.6338L8.04193 16.3555C8.27065 16.3005 8.47524 16.1767 8.62599 16.002C8.77675 15.8273 8.86583 15.6109 8.88032 15.3841C8.8948 15.1573 8.83393 14.932 8.70655 14.7409C8.57916 14.5497 8.39188 14.4026 8.17188 14.321C5.77284 13.4317 4.76542 12.174 4.25025 11.1203C4.87714 11.2454 5.46083 11.4 6.29481 11.4C6.54455 11.3998 6.7869 11.3184 6.98264 11.1689C7.17838 11.0194 7.31605 10.8107 7.37335 10.5764C7.43065 10.3421 7.40423 10.0961 7.29838 9.87808C7.19252 9.66008 7.01342 9.4829 6.79007 9.37522C6.79007 9.37522 4.44662 8.33625 4.44662 5.34375C4.44662 4.80649 4.60101 4.4662 4.71374 4.0593C5.10052 4.56025 5.41927 5.0435 6.04357 5.59841C7.94697 7.29027 11.093 9.01537 15.8462 9.26111C15.9966 9.26884 16.1471 9.24697 16.2884 9.19682C16.4298 9.14668 16.559 9.06931 16.6683 8.96943C16.7776 8.86956 16.8647 8.74927 16.9242 8.61591C16.9837 8.48255 17.0143 8.33891 17.0143 8.19375V7.125C17.0143 4.35824 19.3185 2.1375 22.1893 2.1375Z" fill="white"/>
</svg>
